<svg width="145" height="63" viewBox="0 0 145 63" fill="none" xmlns="http://www.w3.org/2000/svg">
<path d="M19 21.0679C19 21.0679 20.6157 15.6235 22.5 12.5679C25.4722 7.74807 33 2.56793 33 2.56793L43.5 12.5679H51.5" stroke="black" stroke-width="4"/>
<path d="M75.5 21.0679C75.5 21.0679 73.8843 15.6235 72 12.5679C69.0278 7.74807 61.5 2.56793 61.5 2.56793L51 12.5679H43" stroke="black" stroke-width="4"/>
<path d="M37 43.379L57 43.379L57 50.1124C57 51.7568 56.7259 53.2383 56.1778 54.5568C55.6444 55.8753 54.9111 57.0013 53.9778 57.9346C53.0593 58.8827 51.9926 59.6013 50.7778 60.0902C49.5778 60.5939 48.3185 60.8457 47 60.8457C45.6815 60.8457 44.4148 60.5939 43.2 60.0902C42 59.6013 40.9333 58.8827 40 57.9346C39.0815 57.0013 38.3481 55.8753 37.8 54.5568C37.2667 53.2383 37 51.7568 37 50.1124L37 43.379ZM40.2667 46.8902L40.2667 49.779C40.2667 51.0087 40.4519 52.0753 40.8222 52.979C41.1926 53.8827 41.6889 54.6383 42.3111 55.2457C42.9481 55.8531 43.6667 56.305 44.4667 56.6013C45.2815 56.8976 46.1259 57.0457 47 57.0457C47.8741 57.0457 48.7111 56.8976 49.5111 56.6013C50.3259 56.305 51.0519 55.8531 51.6889 55.2457C52.3259 54.6383 52.8222 53.8827 53.1778 52.979C53.5481 52.0753 53.7333 51.0087 53.7333 49.779L53.7333 46.8902L40.2667 46.8902Z" fill="black"/>
<path d="M0.977778 27.3346V24.0679H14.6889V27.3346H9.68889V44.0679H5.97778V27.3346H0.977778ZM25.434 44.4679C23.9822 44.4679 22.6192 44.2013 21.3451 43.6679C20.0711 43.1198 18.9451 42.3716 17.9674 41.4235C17.0044 40.4753 16.2488 39.3716 15.7007 38.1124C15.1674 36.8531 14.9007 35.505 14.9007 34.0679C14.9007 32.6309 15.1674 31.2827 15.7007 30.0235C16.2488 28.7642 17.0044 27.6605 17.9674 26.7124C18.9451 25.7642 20.0711 25.0235 21.3451 24.4902C22.6192 23.942 23.9822 23.6679 25.434 23.6679C26.9007 23.6679 28.2711 23.942 29.5451 24.4902C30.8192 25.0235 31.9377 25.7642 32.9007 26.7124C33.8637 27.6605 34.6118 28.7642 35.1451 30.0235C35.6933 31.2827 35.9674 32.6309 35.9674 34.0679C35.9674 35.505 35.6933 36.8531 35.1451 38.1124C34.6118 39.3716 33.8637 40.4753 32.9007 41.4235C31.9377 42.3716 30.8192 43.1198 29.5451 43.6679C28.2711 44.2013 26.9007 44.4679 25.434 44.4679ZM25.434 40.979C26.6933 40.979 27.834 40.6679 28.8563 40.0457C29.8785 39.4235 30.6859 38.5865 31.2785 37.5346C31.8859 36.4827 32.1896 35.3272 32.1896 34.0679C32.1896 32.779 31.8859 31.6161 31.2785 30.579C30.6859 29.542 29.8785 28.7124 28.8563 28.0902C27.834 27.4679 26.6933 27.1568 25.434 27.1568C24.16 27.1568 23.0118 27.4679 21.9896 28.0902C20.9674 28.7124 20.16 29.5494 19.5674 30.6013C18.9748 31.6383 18.6785 32.7939 18.6785 34.0679C18.6785 35.342 18.9748 36.505 19.5674 37.5568C20.16 38.5939 20.9674 39.4235 21.9896 40.0457C23.0118 40.6679 24.16 40.979 25.434 40.979ZM68.9653 44.4679C67.5134 44.4679 66.1505 44.2013 64.8764 43.6679C63.6023 43.1198 62.4764 42.3716 61.4986 41.4235C60.5356 40.4753 59.7801 39.3716 59.2319 38.1124C58.6986 36.8531 58.4319 35.505 58.4319 34.0679C58.4319 32.6309 58.6986 31.2827 59.2319 30.0235C59.7801 28.7642 60.5356 27.6605 61.4986 26.7124C62.4764 25.7642 63.6023 25.0235 64.8764 24.4902C66.1505 23.942 67.5134 23.6679 68.9653 23.6679C70.4319 23.6679 71.8023 23.942 73.0764 24.4902C74.3505 25.0235 75.469 25.7642 76.4319 26.7124C77.3949 27.6605 78.1431 28.7642 78.6764 30.0235C79.2245 31.2827 79.4986 32.6309 79.4986 34.0679C79.4986 35.505 79.2245 36.8531 78.6764 38.1124C78.1431 39.3716 77.3949 40.4753 76.4319 41.4235C75.469 42.3716 74.3505 43.1198 73.0764 43.6679C71.8023 44.2013 70.4319 44.4679 68.9653 44.4679ZM68.9653 40.979C70.2245 40.979 71.3653 40.6679 72.3875 40.0457C73.4097 39.4235 74.2171 38.5865 74.8097 37.5346C75.4171 36.4827 75.7208 35.3272 75.7208 34.0679C75.7208 32.779 75.4171 31.6161 74.8097 30.579C74.2171 29.542 73.4097 28.7124 72.3875 28.0902C71.3653 27.4679 70.2245 27.1568 68.9653 27.1568C67.6912 27.1568 66.5431 27.4679 65.5208 28.0902C64.4986 28.7124 63.6912 29.5494 63.0986 30.6013C62.506 31.6383 62.2097 32.7939 62.2097 34.0679C62.2097 35.342 62.506 36.505 63.0986 37.5568C63.6912 38.5939 64.4986 39.4235 65.5208 40.0457C66.5431 40.6679 67.6912 40.979 68.9653 40.979ZM82.2917 35.5346V32.6013H89.2917V35.5346H82.2917ZM102.622 44.4679C101.17 44.4679 99.8067 44.2013 98.5326 43.6679C97.2586 43.1198 96.1326 42.3716 95.1549 41.4235C94.1919 40.4753 93.4363 39.3716 92.8882 38.1124C92.3549 36.8531 92.0882 35.505 92.0882 34.0679C92.0882 32.6309 92.3549 31.2827 92.8882 30.0235C93.4363 28.7642 94.1919 27.6605 95.1549 26.7124C96.1326 25.7642 97.2586 25.0235 98.5326 24.4902C99.8067 23.942 101.17 23.6679 102.622 23.6679C103.97 23.6679 105.236 23.8976 106.422 24.3568C107.607 24.8013 108.666 25.4383 109.599 26.2679L108.555 30.5124C107.977 29.5494 107.184 28.7494 106.177 28.1124C105.17 27.4753 104.014 27.1568 102.71 27.1568C101.451 27.1568 100.31 27.4679 99.2882 28.0902C98.266 28.7124 97.4512 29.542 96.8438 30.579C96.2512 31.6161 95.9549 32.779 95.9549 34.0679C95.9549 35.342 96.2512 36.505 96.8438 37.5568C97.4512 38.5939 98.266 39.4235 99.2882 40.0457C100.31 40.6679 101.451 40.979 102.71 40.979C103.999 40.979 105.147 40.6605 106.155 40.0235C107.177 39.3716 107.977 38.5716 108.555 37.6235L109.599 41.8679C108.666 42.6827 107.607 43.3198 106.422 43.779C105.236 44.2383 103.97 44.4679 102.622 44.4679ZM110.655 44.0679L119.366 23.379H119.41L128.144 44.0679H124.477L122.766 39.9124H115.899L114.188 44.0679H110.655ZM117.122 36.979H121.544L120.499 34.4679C120.277 33.9346 120.07 33.4161 119.877 32.9124C119.684 32.3939 119.499 31.7939 119.322 31.1124C119.144 31.7939 118.959 32.3865 118.766 32.8902C118.588 33.3939 118.388 33.9198 118.166 34.4679L117.122 36.979ZM126.79 27.3346V24.0679H140.501V27.3346H135.501V44.0679H131.79V27.3346H126.79Z" fill="black"/>
</svg>
